# xmcd
#
# Track frame offsets:
#	150
#	17345
#	41285
#	67402
#	96715
#	118807
#	141135
#	164310
#	182640
#	199560
#
# Disc length: 2932 seconds
#
# Revision: 0
# Processed by: cddbd v1.4PL0 Copyright (c) Steve Scherf et al.
# Submitted via: dBpowerAMP V4.0
#
DISCID=8b0b720a
DTITLE=Jonathqn Butler - Funky House Party
DYEAR=1900
DGENRE=
TTITLE0=Meet Me On The Dance Floor
TTITLE1=funky House Party
TTITLE2=I Can't Stop Loving You
TTITLE3=Best Time Of My Life
TTITLE4=All The Way
TTITLE5=Teel Me What You Want Me To Do
TTITLE6=Welcome To The Show
TTITLE7=No Half Stepping
TTITLE8=I Go Crazy
TTITLE9=The Thought Never Crossed My Mind
EXTD=
EXTT0=
EXTT1=
EXTT2=
EXTT3=
EXTT4=
EXTT5=
EXTT6=
EXTT7=
EXTT8=
EXTT9=
PLAYORDER=
